<svg width="24" height="24" viewBox="0 0 24 24" fill="none" xmlns="http://www.w3.org/2000/svg">
<path d="M22.7813 9.00017C22.665 8.64139 22.4449 8.32518 22.1489 8.09154C21.8528 7.8579 21.4941 7.71735 21.1181 7.68767L15.8128 7.25923L13.7653 2.30829C13.6214 1.95838 13.3768 1.65912 13.0625 1.44852C12.7482 1.23793 12.3783 1.12549 12 1.12549C11.6217 1.12549 11.2519 1.23793 10.9375 1.44852C10.6232 1.65912 10.3786 1.95838 10.2347 2.30829L8.18907 7.26017L2.88376 7.68767C2.50709 7.71873 2.14801 7.86043 1.85163 8.09496C1.55526 8.3295 1.33482 8.64639 1.21801 9.00584C1.1012 9.36528 1.09324 9.75123 1.19512 10.1152C1.297 10.4791 1.50418 10.8049 1.79063 11.0514L5.83876 14.5427L4.60126 19.7645C4.511 20.1327 4.53235 20.5194 4.66259 20.8754C4.79283 21.2314 5.02608 21.5406 5.33261 21.7635C5.63915 21.9865 6.00512 22.1133 6.38392 22.1276C6.76272 22.1419 7.1372 22.0431 7.45969 21.8439L12 19.0492L16.5403 21.8439C16.8627 22.0418 17.2366 22.1396 17.6146 22.1249C17.9926 22.1102 18.3577 21.9836 18.6638 21.7613C18.9699 21.539 19.2031 21.2308 19.3339 20.8759C19.4647 20.5209 19.4873 20.1351 19.3988 19.7674L18.1613 14.5455L22.2094 11.0542C22.4975 10.8071 22.7057 10.4799 22.8076 10.1141C22.9094 9.74841 22.9002 9.36067 22.7813 9.00017ZM16.1747 13.2845C16.0186 13.4191 15.9025 13.594 15.839 13.7901C15.7755 13.9861 15.7671 14.1959 15.8147 14.3964L17.0231 19.5002L12.5897 16.7739C12.4124 16.6648 12.2082 16.607 12 16.607C11.7918 16.607 11.5876 16.6648 11.4103 16.7739L6.97688 19.5002L8.18532 14.4002C8.23292 14.1996 8.22451 13.9899 8.16103 13.7938C8.09754 13.5977 7.98141 13.4229 7.82532 13.2883L3.86251 9.86642L9.05626 9.44735C9.26294 9.43075 9.46101 9.35735 9.6286 9.23525C9.79619 9.11316 9.92678 8.94712 10.0059 8.75548L12 3.92735L13.9941 8.75548C14.0732 8.94712 14.2038 9.11316 14.3714 9.23525C14.539 9.35735 14.7371 9.43075 14.9438 9.44735L20.1375 9.86642L16.1747 13.2845Z" fill="#4ECDC4"/>
</svg>
