<svg width="307" height="90" viewBox="0 0 307 90" fill="none" xmlns="http://www.w3.org/2000/svg">
<path d="M101.982 64V37.8182H108.31V58.8608H119.202V64H101.982ZM122.478 64V44.3636H128.729V64H122.478ZM125.61 42.0753C124.732 42.0753 123.978 41.7855 123.347 41.206C122.716 40.6179 122.401 39.9105 122.401 39.0838C122.401 38.2656 122.716 37.5668 123.347 36.9872C123.978 36.3991 124.732 36.1051 125.61 36.1051C126.496 36.1051 127.25 36.3991 127.873 36.9872C128.503 37.5668 128.819 38.2656 128.819 39.0838C128.819 39.9105 128.503 40.6179 127.873 41.206C127.25 41.7855 126.496 42.0753 125.61 42.0753ZM138.96 52.8011V64H132.708V44.3636H138.653V47.9688H138.87C139.305 46.767 140.046 45.8253 141.094 45.1435C142.143 44.4531 143.391 44.108 144.84 44.108C146.221 44.108 147.418 44.419 148.433 45.0412C149.455 45.6548 150.248 46.5156 150.81 47.6236C151.381 48.723 151.663 50.0099 151.654 51.4844V64H145.403V52.7116C145.411 51.6207 145.134 50.7685 144.572 50.1548C144.018 49.5412 143.246 49.2344 142.258 49.2344C141.602 49.2344 141.022 49.3793 140.519 49.669C140.025 49.9503 139.641 50.3551 139.369 50.8835C139.104 51.4119 138.968 52.0511 138.96 52.8011ZM164.678 71.7727C162.811 71.7727 161.213 71.5128 159.884 70.9929C158.554 70.473 157.51 69.7614 156.752 68.858C155.993 67.9545 155.537 66.9318 155.384 65.7898L161.303 65.4574C161.414 65.858 161.618 66.2074 161.917 66.5057C162.223 66.804 162.62 67.0341 163.105 67.196C163.6 67.358 164.179 67.4389 164.844 67.4389C165.892 67.4389 166.757 67.1832 167.439 66.6719C168.13 66.169 168.475 65.2869 168.475 64.0256V60.5739H168.257C168.01 61.179 167.635 61.7202 167.132 62.1974C166.63 62.6747 166.003 63.0497 165.253 63.3224C164.512 63.5952 163.659 63.7315 162.696 63.7315C161.265 63.7315 159.952 63.3991 158.759 62.7344C157.574 62.0611 156.624 61.0213 155.908 59.6151C155.201 58.2003 154.847 56.3807 154.847 54.1562C154.847 51.8636 155.213 49.9759 155.946 48.4929C156.679 47.0014 157.638 45.8977 158.823 45.1818C160.016 44.4659 161.299 44.108 162.671 44.108C163.702 44.108 164.584 44.2869 165.317 44.6449C166.059 44.9943 166.668 45.446 167.145 46C167.623 46.554 167.985 47.1293 168.232 47.7259H168.411V44.3636H174.637V64.0767C174.637 65.7386 174.219 67.1406 173.384 68.2827C172.549 69.4247 171.381 70.2898 169.881 70.8778C168.381 71.4744 166.647 71.7727 164.678 71.7727ZM164.87 59.1804C165.628 59.1804 166.276 58.9801 166.813 58.5795C167.35 58.179 167.763 57.6037 168.053 56.8537C168.343 56.1037 168.488 55.2045 168.488 54.1562C168.488 53.0909 168.343 52.1747 168.053 51.4077C167.772 50.6321 167.358 50.0355 166.813 49.6179C166.276 49.2003 165.628 48.9915 164.87 48.9915C164.094 48.9915 163.438 49.2045 162.901 49.6307C162.364 50.0568 161.955 50.6577 161.674 51.4332C161.401 52.2003 161.265 53.108 161.265 54.1562C161.265 55.2045 161.405 56.1037 161.686 56.8537C161.968 57.6037 162.373 58.179 162.901 58.5795C163.438 58.9801 164.094 59.1804 164.87 59.1804ZM187.788 64.3707C185.726 64.3707 183.953 63.9489 182.47 63.1051C180.996 62.2528 179.858 61.0682 179.057 59.5511C178.264 58.0256 177.868 56.2571 177.868 54.2457C177.868 52.2259 178.264 50.4574 179.057 48.9403C179.858 47.4148 180.996 46.2301 182.47 45.3864C183.953 44.5341 185.726 44.108 187.788 44.108C189.851 44.108 191.619 44.5341 193.094 45.3864C194.577 46.2301 195.714 47.4148 196.507 48.9403C197.308 50.4574 197.709 52.2259 197.709 54.2457C197.709 56.2571 197.308 58.0256 196.507 59.5511C195.714 61.0682 194.577 62.2528 193.094 63.1051C191.619 63.9489 189.851 64.3707 187.788 64.3707ZM187.827 59.6534C188.577 59.6534 189.212 59.4233 189.732 58.9631C190.251 58.5028 190.648 57.8636 190.92 57.0455C191.202 56.2273 191.342 55.2812 191.342 54.2074C191.342 53.1165 191.202 52.1619 190.92 51.3438C190.648 50.5256 190.251 49.8864 189.732 49.4261C189.212 48.9659 188.577 48.7358 187.827 48.7358C187.051 48.7358 186.395 48.9659 185.858 49.4261C185.33 49.8864 184.925 50.5256 184.643 51.3438C184.371 52.1619 184.234 53.1165 184.234 54.2074C184.234 55.2812 184.371 56.2273 184.643 57.0455C184.925 57.8636 185.33 58.5028 185.858 58.9631C186.395 59.4233 187.051 59.6534 187.827 59.6534ZM210.921 54.5909H216.035L218.208 57.3651L221.059 60.6378L225.444 66.0455H219.717L216.648 62.3764L214.833 59.7685L210.921 54.5909ZM225.623 50.9091C225.623 53.7898 225.069 56.2315 223.961 58.2344C222.853 60.2372 221.353 61.7585 219.461 62.7983C217.577 63.8381 215.464 64.358 213.12 64.358C210.768 64.358 208.65 63.8338 206.766 62.7855C204.883 61.7372 203.387 60.2159 202.279 58.2216C201.18 56.2187 200.63 53.7812 200.63 50.9091C200.63 48.0284 201.18 45.5866 202.279 43.5838C203.387 41.581 204.883 40.0597 206.766 39.0199C208.65 37.9801 210.768 37.4602 213.12 37.4602C215.464 37.4602 217.577 37.9801 219.461 39.0199C221.353 40.0597 222.853 41.581 223.961 43.5838C225.069 45.5866 225.623 48.0284 225.623 50.9091ZM219.154 50.9091C219.154 49.2045 218.911 47.7642 218.425 46.5881C217.948 45.4119 217.258 44.5213 216.354 43.9162C215.46 43.3111 214.381 43.0085 213.12 43.0085C211.867 43.0085 210.789 43.3111 209.886 43.9162C208.982 44.5213 208.288 45.4119 207.802 46.5881C207.325 47.7642 207.086 49.2045 207.086 50.9091C207.086 52.6136 207.325 54.054 207.802 55.2301C208.288 56.4062 208.982 57.2969 209.886 57.902C210.789 58.5071 211.867 58.8097 213.12 58.8097C214.381 58.8097 215.46 58.5071 216.354 57.902C217.258 57.2969 217.948 56.4062 218.425 55.2301C218.911 54.054 219.154 52.6136 219.154 50.9091ZM242.022 55.5241V44.3636H248.26V64H242.303V60.3438H242.098C241.664 61.5455 240.922 62.5 239.874 63.2074C238.834 63.9062 237.577 64.2557 236.103 64.2557C234.765 64.2557 233.588 63.9489 232.574 63.3352C231.56 62.7216 230.772 61.8651 230.209 60.7656C229.647 59.6577 229.361 58.3622 229.353 56.8793V44.3636H235.604V55.652C235.613 56.7173 235.894 57.5568 236.448 58.1705C237.002 58.7841 237.756 59.0909 238.711 59.0909C239.333 59.0909 239.891 58.9545 240.385 58.6818C240.888 58.4006 241.284 57.9957 241.574 57.4673C241.873 56.9304 242.022 56.2827 242.022 55.5241ZM261.418 64.3707C259.364 64.3707 257.592 63.9659 256.1 63.1562C254.617 62.3381 253.475 61.1747 252.674 59.6662C251.881 58.1491 251.485 56.3466 251.485 54.2585C251.485 52.2301 251.886 50.4574 252.687 48.9403C253.488 47.4148 254.617 46.2301 256.075 45.3864C257.532 44.5341 259.249 44.108 261.227 44.108C262.624 44.108 263.903 44.3253 265.062 44.7599C266.221 45.1946 267.222 45.8381 268.066 46.6903C268.91 47.5426 269.566 48.5952 270.035 49.848C270.504 51.0923 270.738 52.5199 270.738 54.1307V55.6903H253.671V52.0597H264.921C264.913 51.3949 264.755 50.8026 264.448 50.2827C264.141 49.7628 263.719 49.358 263.183 49.0682C262.654 48.7699 262.045 48.6207 261.354 48.6207C260.656 48.6207 260.029 48.7784 259.475 49.0938C258.921 49.4006 258.482 49.8224 258.158 50.3594C257.835 50.8878 257.664 51.4886 257.647 52.1619V55.8565C257.647 56.6577 257.805 57.3608 258.12 57.9659C258.435 58.5625 258.883 59.027 259.462 59.3594C260.042 59.6918 260.732 59.858 261.533 59.858C262.087 59.858 262.59 59.7812 263.042 59.6278C263.494 59.4744 263.881 59.2486 264.205 58.9503C264.529 58.652 264.772 58.2855 264.934 57.8509L270.674 58.017C270.435 59.304 269.911 60.4247 269.102 61.3793C268.3 62.3253 267.248 63.0625 265.944 63.5909C264.64 64.1108 263.131 64.3707 261.418 64.3707ZM291.074 50.3594L285.334 50.5128C285.275 50.1037 285.113 49.7415 284.848 49.4261C284.584 49.1023 284.239 48.8509 283.813 48.6719C283.395 48.4844 282.909 48.3906 282.355 48.3906C281.631 48.3906 281.013 48.5355 280.502 48.8253C279.999 49.1151 279.752 49.5071 279.76 50.0014C279.752 50.3849 279.905 50.7173 280.221 50.9986C280.544 51.2798 281.12 51.5057 281.946 51.6761L285.73 52.392C287.691 52.767 289.148 53.3892 290.103 54.2585C291.066 55.1278 291.551 56.2784 291.56 57.7102C291.551 59.0568 291.151 60.2287 290.358 61.2259C289.574 62.223 288.5 62.9986 287.137 63.5526C285.773 64.098 284.213 64.3707 282.458 64.3707C279.654 64.3707 277.442 63.7955 275.823 62.6449C274.212 61.4858 273.292 59.9347 273.061 57.9915L279.236 57.8381C279.373 58.554 279.726 59.0994 280.297 59.4744C280.868 59.8494 281.597 60.0369 282.483 60.0369C283.284 60.0369 283.936 59.8878 284.439 59.5895C284.942 59.2912 285.198 58.8949 285.206 58.4006C285.198 57.9574 285.002 57.6037 284.618 57.3395C284.235 57.0668 283.634 56.8537 282.816 56.7003L279.39 56.0483C277.421 55.6903 275.955 55.0298 274.992 54.0668C274.029 53.0952 273.551 51.8594 273.56 50.3594C273.551 49.0469 273.901 47.9261 274.608 46.9972C275.316 46.0597 276.321 45.3438 277.625 44.8494C278.929 44.3551 280.468 44.108 282.24 44.108C284.9 44.108 286.996 44.6662 288.53 45.7827C290.064 46.8906 290.912 48.4162 291.074 50.3594ZM305.722 44.3636V48.9659H293.334V44.3636H305.722ZM295.929 39.6591H302.18V57.8253C302.18 58.2088 302.24 58.5199 302.359 58.7585C302.487 58.9886 302.67 59.1548 302.909 59.2571C303.148 59.3509 303.433 59.3977 303.766 59.3977C304.004 59.3977 304.256 59.3764 304.52 59.3338C304.793 59.2827 304.997 59.2401 305.134 59.206L306.08 63.7188C305.781 63.804 305.359 63.9105 304.814 64.0384C304.277 64.1662 303.634 64.2472 302.884 64.2812C301.418 64.3494 300.161 64.179 299.112 63.7699C298.072 63.3523 297.276 62.7045 296.722 61.8267C296.176 60.9489 295.912 59.8452 295.929 58.5156V39.6591Z" fill="#1A2634"/>
<path d="M15 42.4987L0 33.75L45 7.5L90 33.75V65.625H82.5V38.1262L75 42.4987V67.5412L74.1637 68.5725C70.6522 72.9256 66.2097 76.4363 61.1628 78.8466C56.1158 81.2568 50.5929 82.5052 45 82.5C39.4071 82.5052 33.8842 81.2568 28.8372 78.8466C23.7903 76.4363 19.3478 72.9256 15.8363 68.5725L15 67.5412V42.4987ZM22.5 46.875V64.845C25.3123 68.0406 28.7741 70.5995 32.6541 72.3506C36.5341 74.1018 40.7431 75.0051 45 75C49.2569 75.0051 53.4659 74.1018 57.3459 72.3506C61.2259 70.5995 64.6877 68.0406 67.5 64.845V46.875L45 60L22.5 46.875ZM14.8875 33.75L45 51.3188L75.1125 33.75L45 16.1813L14.8875 33.75Z" fill="#1A2634"/>
</svg>
