<svg width="75" height="75" viewBox="0 0 75 75" fill="none" xmlns="http://www.w3.org/2000/svg">
<path d="M67.9688 14.0625H46.875C45.0557 14.0625 43.2614 14.4861 41.6342 15.2997C40.007 16.1133 38.5916 17.2946 37.5 18.75C36.4084 17.2946 34.993 16.1133 33.3658 15.2997C31.7386 14.4861 29.9443 14.0625 28.125 14.0625H7.03125C6.40965 14.0625 5.81351 14.3094 5.37397 14.749C4.93443 15.1885 4.6875 15.7846 4.6875 16.4062V58.5938C4.6875 59.2154 4.93443 59.8115 5.37397 60.251C5.81351 60.6906 6.40965 60.9375 7.03125 60.9375H28.125C29.9898 60.9375 31.7782 61.6783 33.0968 62.9969C34.4155 64.3155 35.1562 66.1039 35.1562 67.9688C35.1562 68.5904 35.4032 69.1865 35.8427 69.626C36.2823 70.0656 36.8784 70.3125 37.5 70.3125C38.1216 70.3125 38.7177 70.0656 39.1573 69.626C39.5968 69.1865 39.8438 68.5904 39.8438 67.9688C39.8438 66.1039 40.5845 64.3155 41.9032 62.9969C43.2218 61.6783 45.0102 60.9375 46.875 60.9375H67.9688C68.5904 60.9375 69.1865 60.6906 69.626 60.251C70.0656 59.8115 70.3125 59.2154 70.3125 58.5938V16.4062C70.3125 15.7846 70.0656 15.1885 69.626 14.749C69.1865 14.3094 68.5904 14.0625 67.9688 14.0625ZM28.125 56.25H9.375V18.75H28.125C29.9898 18.75 31.7782 19.4908 33.0968 20.8094C34.4155 22.128 35.1562 23.9164 35.1562 25.7812V58.5938C33.1297 57.0688 30.6612 56.246 28.125 56.25ZM65.625 56.25H46.875C44.3388 56.246 41.8703 57.0688 39.8438 58.5938V25.7812C39.8438 23.9164 40.5845 22.128 41.9032 20.8094C43.2218 19.4908 45.0102 18.75 46.875 18.75H65.625V56.25Z" fill="#FFBC42"/>
</svg>
