<svg width="60" height="60" viewBox="0 0 60 60" fill="none" xmlns="http://www.w3.org/2000/svg">
<path d="M58.317 9.11216C39.665 4.52942 21.0131 14.2144 2.36121 10.0536C1.20926 9.79676 0.117188 10.6784 0.117188 11.8587V48.5117C0.117188 49.3614 0.696094 50.104 1.52121 50.3067C20.1731 54.8895 38.825 45.2045 57.477 49.3652C58.6289 49.6222 59.721 48.7405 59.721 47.5602V10.9072C59.721 10.0576 59.1422 9.31489 58.317 9.11216Z" fill="#FF473E"/>
<path d="M7.64933 23.2538L5.28484 24.4969C4.93422 24.6812 4.52441 24.3834 4.59132 23.9931L5.04285 21.3602C5.05593 21.2839 5.05026 21.2055 5.02631 21.1318C5.00236 21.0581 4.96087 20.9913 4.90539 20.9372L2.99254 19.0726C2.70882 18.7961 2.86539 18.3144 3.25738 18.2573L5.9009 17.8732C5.97758 17.8621 6.0504 17.8324 6.11309 17.7869C6.17578 17.7413 6.22647 17.6812 6.26078 17.6118L7.44297 15.2163C7.61828 14.8611 8.12488 14.8611 8.30019 15.2163L9.48238 17.6118C9.51669 17.6812 9.56737 17.7413 9.63007 17.7869C9.69276 17.8324 9.76558 17.8621 9.84226 17.8732L12.4858 18.2573C12.8778 18.3143 13.0343 18.7961 12.7506 19.0726L10.8378 20.9372C10.7823 20.9913 10.7408 21.0581 10.7168 21.1318C10.6929 21.2055 10.6872 21.2839 10.7003 21.3602L11.1518 23.9931C11.2187 24.3836 10.8089 24.6812 10.4583 24.4969L8.09418 23.2538C8.02558 23.2177 7.94925 23.1989 7.87175 23.1989C7.79426 23.1989 7.71793 23.2177 7.64933 23.2538ZM18.6952 15.3954L19.3093 15.7182C19.3298 15.729 19.3528 15.7338 19.3759 15.7321C19.399 15.7304 19.4212 15.7223 19.4399 15.7087C19.4586 15.6951 19.4732 15.6766 19.4819 15.6551C19.4907 15.6337 19.4932 15.6103 19.4894 15.5875L19.3721 14.9038C19.3687 14.884 19.3702 14.8636 19.3764 14.8445C19.3826 14.8254 19.3934 14.808 19.4078 14.794L19.9046 14.3098C19.9211 14.2936 19.9328 14.2731 19.9384 14.2506C19.9439 14.2281 19.9431 14.2046 19.9359 14.1825C19.9287 14.1605 19.9156 14.1409 19.8979 14.126C19.8802 14.1111 19.8587 14.1014 19.8358 14.098L19.1493 13.9983C19.1294 13.9954 19.1105 13.9877 19.0942 13.9759C19.078 13.964 19.0648 13.9485 19.0559 13.9304L18.7489 13.3084C18.7386 13.2876 18.7228 13.2702 18.7031 13.258C18.6834 13.2457 18.6607 13.2393 18.6376 13.2393C18.6144 13.2393 18.5918 13.2457 18.5721 13.258C18.5524 13.2702 18.5366 13.2876 18.5263 13.3084L18.2193 13.9304C18.2104 13.9485 18.1972 13.964 18.181 13.9759C18.1647 13.9877 18.1458 13.9954 18.1259 13.9983L17.4394 14.098C17.4165 14.1014 17.395 14.1111 17.3773 14.126C17.3596 14.1409 17.3464 14.1605 17.3393 14.1825C17.3321 14.2046 17.3313 14.2281 17.3368 14.2506C17.3424 14.2731 17.3541 14.2936 17.3706 14.3098L17.8674 14.794C17.8967 14.8225 17.91 14.8636 17.9031 14.9038L17.7858 15.5875C17.782 15.6103 17.7845 15.6337 17.7933 15.6551C17.802 15.6766 17.8166 15.6951 17.8353 15.7087C17.854 15.7223 17.8762 15.7304 17.8993 15.7321C17.9223 15.7338 17.9454 15.729 17.9659 15.7182L18.58 15.3954C18.6159 15.3764 18.6591 15.3764 18.6952 15.3954ZM22.3827 19.2068L22.9968 19.5297C23.0173 19.5404 23.0404 19.5452 23.0635 19.5435C23.0865 19.5418 23.1087 19.5337 23.1274 19.5201C23.1461 19.5065 23.1607 19.488 23.1694 19.4666C23.1782 19.4451 23.1808 19.4217 23.1769 19.3989L23.0596 18.7152C23.0562 18.6954 23.0577 18.675 23.0639 18.6559C23.0702 18.6368 23.0809 18.6194 23.0953 18.6054L23.5921 18.1212C23.6087 18.105 23.6204 18.0845 23.6259 18.062C23.6315 18.0395 23.6306 18.016 23.6234 17.9939C23.6163 17.9719 23.6031 17.9523 23.5854 17.9374C23.5677 17.9225 23.5462 17.9128 23.5233 17.9094L22.8368 17.8097C22.8169 17.8068 22.798 17.7991 22.7818 17.7873C22.7655 17.7755 22.7523 17.7599 22.7434 17.7418L22.4364 17.1198C22.4262 17.0991 22.4103 17.0816 22.3906 17.0694C22.371 17.0571 22.3483 17.0507 22.3251 17.0507C22.302 17.0507 22.2793 17.0571 22.2596 17.0694C22.24 17.0816 22.2241 17.0991 22.2139 17.1198L21.9068 17.7418C21.8979 17.7599 21.8848 17.7755 21.8685 17.7873C21.8522 17.7991 21.8333 17.8068 21.8134 17.8097L21.1269 17.9094C21.104 17.9128 21.0825 17.9225 21.0648 17.9374C21.0471 17.9523 21.034 17.9719 21.0268 17.9939C21.0197 18.016 21.0188 18.0395 21.0244 18.062C21.0299 18.0845 21.0416 18.105 21.0582 18.1212L21.5549 18.6054C21.5842 18.6339 21.5976 18.675 21.5907 18.7152L21.4734 19.3989C21.4695 19.4217 21.4721 19.4451 21.4808 19.4666C21.4896 19.488 21.5041 19.5065 21.5228 19.5201C21.5416 19.5337 21.5637 19.5418 21.5868 19.5435C21.6099 19.5452 21.633 19.5404 21.6535 19.5297L22.2675 19.2068C22.3033 19.1878 22.3465 19.1878 22.3827 19.2068ZM22.3827 24.7759L22.9968 25.0988C23.0173 25.1095 23.0404 25.1143 23.0635 25.1126C23.0865 25.1109 23.1087 25.1028 23.1274 25.0892C23.1461 25.0756 23.1607 25.0571 23.1694 25.0357C23.1782 25.0142 23.1808 24.9908 23.1769 24.968L23.0596 24.2843C23.0562 24.2645 23.0577 24.2441 23.0639 24.225C23.0702 24.2059 23.0809 24.1885 23.0953 24.1745L23.5921 23.6903C23.6087 23.6741 23.6204 23.6536 23.6259 23.6311C23.6315 23.6086 23.6306 23.5851 23.6234 23.563C23.6163 23.541 23.6031 23.5214 23.5854 23.5065C23.5677 23.4916 23.5462 23.4819 23.5233 23.4785L22.8368 23.3788C22.8169 23.3759 22.798 23.3682 22.7818 23.3564C22.7655 23.3446 22.7523 23.329 22.7434 23.3109L22.4364 22.6889C22.4262 22.6682 22.4103 22.6507 22.3906 22.6385C22.371 22.6262 22.3483 22.6198 22.3251 22.6198C22.302 22.6198 22.2793 22.6262 22.2596 22.6385C22.24 22.6507 22.2241 22.6682 22.2139 22.6889L21.9068 23.3109C21.8979 23.329 21.8848 23.3446 21.8685 23.3564C21.8522 23.3682 21.8333 23.3759 21.8134 23.3788L21.1269 23.4785C21.104 23.4819 21.0825 23.4916 21.0648 23.5065C21.0471 23.5214 21.034 23.541 21.0268 23.563C21.0197 23.5851 21.0188 23.6086 21.0244 23.6311C21.0299 23.6536 21.0416 23.6741 21.0582 23.6903L21.5549 24.1745C21.5842 24.203 21.5976 24.2441 21.5907 24.2843L21.4734 24.968C21.4695 24.9908 21.4721 25.0142 21.4808 25.0357C21.4896 25.0571 21.5041 25.0756 21.5228 25.0892C21.5416 25.1028 21.5637 25.1109 21.5868 25.1126C21.6099 25.1143 21.633 25.1095 21.6535 25.0988L22.2675 24.7759C22.3033 24.7569 22.3465 24.7569 22.3827 24.7759ZM18.6952 28.5873L19.3093 28.9102C19.3298 28.9209 19.3528 28.9257 19.3759 28.924C19.399 28.9223 19.4212 28.9142 19.4399 28.9006C19.4586 28.887 19.4732 28.8685 19.4819 28.8471C19.4907 28.8256 19.4932 28.8022 19.4894 28.7794L19.3721 28.0957C19.3687 28.0759 19.3702 28.0555 19.3764 28.0364C19.3826 28.0173 19.3934 27.9999 19.4078 27.9859L19.9046 27.5017C19.9211 27.4855 19.9328 27.465 19.9384 27.4425C19.9439 27.4201 19.9431 27.3965 19.9359 27.3745C19.9287 27.3524 19.9156 27.3329 19.8979 27.3179C19.8802 27.303 19.8587 27.2933 19.8358 27.2899L19.1493 27.1902C19.1294 27.1873 19.1105 27.1796 19.0942 27.1678C19.078 27.156 19.0648 27.1404 19.0559 27.1223L18.7489 26.5003C18.7386 26.4796 18.7228 26.4621 18.7031 26.4499C18.6834 26.4376 18.6607 26.4312 18.6376 26.4312C18.6144 26.4312 18.5918 26.4376 18.5721 26.4499C18.5524 26.4621 18.5366 26.4796 18.5263 26.5003L18.2193 27.1223C18.2104 27.1404 18.1972 27.156 18.181 27.1678C18.1647 27.1796 18.1458 27.1873 18.1259 27.1902L17.4394 27.2899C17.4165 27.2933 17.395 27.303 17.3773 27.3179C17.3596 27.3329 17.3464 27.3524 17.3393 27.3745C17.3321 27.3965 17.3313 27.4201 17.3368 27.4425C17.3424 27.465 17.3541 27.4855 17.3706 27.5017L17.8674 27.9859C17.8967 28.0144 17.91 28.0555 17.9031 28.0957L17.7858 28.7794C17.782 28.8022 17.7845 28.8256 17.7933 28.8471C17.802 28.8685 17.8166 28.887 17.8353 28.9006C17.854 28.9142 17.8762 28.9223 17.8993 28.924C17.9223 28.9257 17.9454 28.9209 17.9659 28.9102L18.58 28.5873C18.6159 28.5683 18.6591 28.5683 18.6952 28.5873Z" fill="#FFD469"/>
</svg>
