<svg width="60" height="60" viewBox="0 0 60 60" fill="none" xmlns="http://www.w3.org/2000/svg">
<path d="M0.210205 18.9829V40.8268C20.0782 46.9628 39.946 34.6909 59.814 40.8268V18.9829C39.946 12.8469 20.0782 25.1187 0.210205 18.9829Z" fill="#FFB636"/>
<path d="M20.0674 33.9073H15.8345V29.0645H19.3924C19.5714 29.0645 19.7431 29.1356 19.8697 29.2622C19.9963 29.3888 20.0674 29.5605 20.0674 29.7395V33.9073Z" fill="#E8E8E8"/>
<path d="M20.193 25.8594H16.5038C16.6149 25.5634 16.6817 25.1929 16.6817 24.7894C16.6817 23.8228 16.3024 23.0393 15.8346 23.0393C15.3668 23.0393 14.9874 23.8228 14.9874 24.7894C14.9874 25.1929 15.0542 25.5634 15.1653 25.8594H11.4796C11.1931 25.8594 10.9902 26.1394 11.0793 26.4117L11.5072 27.7192C11.5347 27.8032 11.5879 27.8765 11.6594 27.9286C11.7309 27.9807 11.8169 28.009 11.9054 28.0095L19.7587 28.0486C19.8483 28.0491 19.9357 28.021 20.0082 27.9684C20.0807 27.9158 20.1345 27.8414 20.1618 27.7561L20.594 26.4095C20.6813 26.1375 20.4786 25.8594 20.193 25.8594Z" fill="#E2A042"/>
<path d="M10.2309 32.9317C10.2309 32.6425 10.116 32.3652 9.91157 32.1607C9.7071 31.9562 9.42977 31.8414 9.14061 31.8414C8.85144 31.8414 8.57411 31.9562 8.36964 32.1607C8.16517 32.3652 8.05029 32.6425 8.05029 32.9317C8.05029 33.3659 8.30471 33.7396 8.67186 33.915V37.6075C8.67186 37.6997 8.74662 37.7745 8.83885 37.7745H9.44236C9.53459 37.7745 9.60936 37.6997 9.60936 37.6075V33.915C9.97662 33.7396 10.2309 33.3659 10.2309 32.9317ZM23.3169 32.9317C23.3169 32.6425 23.202 32.3652 22.9976 32.1607C22.7931 31.9562 22.5158 31.8414 22.2266 31.8414C21.9374 31.8414 21.6601 31.9562 21.4556 32.1607C21.2511 32.3652 21.1363 32.6425 21.1363 32.9317C21.1363 33.3659 21.3906 33.7396 21.7578 33.915V37.6075C21.7578 37.6997 21.8326 37.7745 21.9248 37.7745H22.5283C22.6206 37.7745 22.6953 37.6997 22.6953 37.6075V33.915C23.0625 33.7396 23.3169 33.3659 23.3169 32.9317Z" fill="#E8E8E8"/>
<path d="M59.814 11.0192V18.9829C39.946 12.8469 20.0782 25.1188 0.210205 18.9829V12.2399C0.210205 10.9459 1.41759 9.99459 2.67712 10.291C21.2643 14.6648 39.8517 4.2612 58.4389 9.22537C59.2503 9.44205 59.814 10.1793 59.814 11.0192ZM0.210205 40.827V48.7906C0.210205 49.6305 0.773877 50.3677 1.58528 50.5844C20.2332 55.5647 38.8811 45.0768 57.5291 49.562C58.6944 49.8423 59.8141 48.9553 59.8141 47.7567V40.8267C39.946 34.691 20.0782 46.9629 0.210205 40.827ZM15.8346 33.9073V29.0645H12.2765C12.0976 29.0645 11.9259 29.1357 11.7994 29.2622C11.6728 29.3888 11.6017 29.5604 11.6017 29.7394V35.6581C11.6017 36.827 12.5492 37.7745 13.7182 37.7745C14.8871 37.7745 15.8346 36.8269 15.8346 35.6581C15.8346 36.827 16.7822 37.7745 17.9511 37.7745C19.1201 37.7745 20.0675 36.8269 20.0675 35.6581V33.9073H15.8346ZM16.6032 25.959C16.0909 25.9794 15.5784 26.0004 15.0661 26.0209V28.1867C15.5784 28.1687 16.0909 28.1501 16.6032 28.1323V25.959ZM12.5001 28.2558C13.0126 28.2475 13.525 28.2357 14.0373 28.2203V26.0594C13.5249 26.0774 13.0125 26.0932 12.5001 26.1039V28.2558ZM19.1692 25.876C18.6568 25.8867 18.1443 25.9026 17.632 25.9206V28.0987C18.1444 28.0831 18.6568 28.0712 19.1692 28.063V25.876Z" fill="#FF473E"/>
<path d="M14.9757 33.9073H15.8345V35.6581C15.8345 36.3552 15.4958 36.9719 14.9757 37.3574V33.9073ZM12.4603 37.3574V33.9073H11.6016V35.6581C11.6016 36.3552 11.9402 36.9717 12.4603 37.3574ZM14.1475 33.9073H13.2887V37.7308C13.572 37.7893 13.8642 37.7893 14.1475 37.7308V33.9073Z" fill="#E2A042"/>
<path d="M17.2803 33.9073C17.2803 34.7058 16.633 35.3531 15.8345 35.3531C15.036 35.3531 14.3886 34.7058 14.3886 33.9073C14.3886 33.1088 15.036 32.4614 15.8345 32.4614C16.633 32.4614 17.2803 33.1088 17.2803 33.9073ZM10.2309 38.0193V37.6576C10.2309 37.5132 10.1735 37.3746 10.0713 37.2724C9.96915 37.1703 9.83059 37.1129 9.68611 37.1128H8.5951C8.45062 37.1129 8.31206 37.1703 8.2099 37.2724C8.10773 37.3746 8.05032 37.5132 8.05029 37.6576V38.0193C8.05032 38.1638 8.10773 38.3023 8.2099 38.4045C8.31206 38.5066 8.45062 38.564 8.5951 38.5641H9.68611C9.83059 38.564 9.96915 38.5066 10.0713 38.4045C10.1735 38.3023 10.2309 38.1638 10.2309 38.0193ZM23.3169 38.0193V37.6576C23.3169 37.5132 23.2595 37.3746 23.1573 37.2724C23.0551 37.1703 22.9166 37.1129 22.7721 37.1128H21.6811C21.5366 37.1129 21.398 37.1703 21.2959 37.2724C21.1937 37.3746 21.1363 37.5132 21.1363 37.6576V38.0193C21.1363 38.1638 21.1937 38.3023 21.2959 38.4045C21.398 38.5066 21.5366 38.564 21.6811 38.5641H22.7721C22.9166 38.564 23.0551 38.5066 23.1573 38.4045C23.2595 38.3023 23.3169 38.1638 23.3169 38.0193Z" fill="#575A5B"/>
</svg>
