<svg width="60" height="60" viewBox="0 0 60 60" fill="none" xmlns="http://www.w3.org/2000/svg">
<path d="M1.88684 50.7981C7.89352 52.1966 13.9003 52.1453 19.907 51.5771V51.56C32.4166 50.2823 44.9263 46.5533 57.4361 49.5621C58.6014 49.8424 59.7211 48.9554 59.7211 47.7568V11.0191C59.7211 10.9451 59.7152 10.8723 59.7067 10.8002C59.4202 10.0425 58.7496 9.38307 57.9682 9.2019C46.5484 6.54315 35.1285 9.12104 23.7087 10.5377C22.4415 10.7079 21.1744 10.8627 19.9072 10.9922V10.957C13.9005 11.5251 7.89375 11.5765 1.88707 10.178C0.844805 9.93631 0 10.534 0 11.5767V48.4233C0 49.4646 0.844805 50.5565 1.88684 50.7981Z" fill="#0B67B2"/>
<path d="M59.721 10.8436C59.4439 10.068 58.7644 9.38639 57.9679 9.20182C51.9166 7.79299 45.8653 7.85534 39.814 8.43542V49.0557C45.8653 48.4756 51.9166 48.4132 57.9679 49.8221C58.7642 50.0066 59.4439 49.7001 59.721 49.0805V10.8436Z" fill="#FF473E"/>
<path d="M19.907 51.5771C26.5426 50.9495 33.1784 49.6917 39.814 49.0556V8.43536C33.1784 9.07146 26.5426 10.3292 19.907 10.9569V51.5771Z" fill="#E8E8E8"/>
</svg>
