<svg width="50" height="50" viewBox="0 0 50 50" fill="none" xmlns="http://www.w3.org/2000/svg">
<path d="M24.9999 41.6667C34.2047 41.6667 41.6666 34.2048 41.6666 25C41.6666 15.7953 34.2047 8.33334 24.9999 8.33334C15.7952 8.33334 8.33325 15.7953 8.33325 25C8.33325 34.2048 15.7952 41.6667 24.9999 41.6667Z" stroke="#268684"/>
<path d="M37.9333 14.1354C36.4062 15.5438 34.4874 16.6854 32.3145 17.4813C30.1416 18.2771 27.7583 18.7104 25.3395 18.7479C22.9517 18.7875 20.5738 18.432 18.302 17.6958C16.0853 16.9667 14.1083 15.8833 12.5062 14.5229M38.1708 36.0917C36.6291 34.6 34.6603 33.3896 32.4062 32.5521C30.0857 31.7 27.6344 31.2594 25.1624 31.25C22.6866 31.2259 20.2253 31.6305 17.8874 32.4458C15.6124 33.25 13.6103 34.4313 12.0312 35.8979M24.9999 8.33334V41.6667M41.6666 25H8.33325" stroke="#268684"/>
</svg>
