<svg width="197" height="34" viewBox="0 0 197 34" fill="none" xmlns="http://www.w3.org/2000/svg">
<path d="M5 16.1663L0 13.25L15 4.5L30 13.25V23.875H27.5V14.7087L25 16.1663V24.5138L24.7213 24.8575C23.5507 26.3085 22.0699 27.4788 20.3876 28.2822C18.7053 29.0856 16.8643 29.5017 15 29.5C13.1357 29.5017 11.2947 29.0856 9.61241 28.2822C7.93011 27.4788 6.44926 26.3085 5.27875 24.8575L5 24.5138V16.1663ZM7.5 17.625V23.615C8.43744 24.6802 9.59136 25.5332 10.8847 26.1169C12.178 26.7006 13.581 27.0017 15 27C16.419 27.0017 17.822 26.7006 19.1153 26.1169C20.4086 25.5332 21.5626 24.6802 22.5 23.615V17.625L15 22L7.5 17.625ZM4.9625 13.25L15 19.1063L25.0375 13.25L15 7.39375L4.9625 13.25Z" fill="#FFC342"/>
<path d="M61.624 27H47.68V6.98H52.72V22.884H61.624V27ZM67.7628 10.956H63.2828V6.98H67.7628V10.956ZM67.7628 27H63.2828V12.664H67.7628V27ZM79.4681 12.216C82.2401 12.216 84.1161 14.036 84.1161 17.312V27H79.6361V18.74C79.6361 16.584 78.8801 15.856 77.3961 15.856C75.6881 15.856 74.7081 16.724 74.7081 18.712V27H70.2281V12.664H74.7081V14.736H74.7641C75.5201 13.42 76.9201 12.216 79.4681 12.216ZM95.9336 14.092V12.664H100.414V25.292C100.414 30.416 97.6416 32.124 93.2456 32.124C88.7936 32.124 86.7216 29.772 86.2176 27.476H90.7536C91.0336 28.26 91.6776 28.904 93.2456 28.904C95.2616 28.904 95.9336 27.84 95.9336 25.292V24.452H95.8776C95.3176 25.208 94.0576 26.328 91.9576 26.328C88.2896 26.328 85.9376 23.416 85.9376 19.272C85.9376 15.128 88.2896 12.216 91.9576 12.216C94.0576 12.216 95.3176 13.336 95.8776 14.092H95.9336ZM93.1896 22.968C95.0096 22.968 95.8496 21.596 95.8496 19.272C95.8496 16.948 95.0096 15.576 93.1896 15.576C91.3696 15.576 90.5296 16.948 90.5296 19.272C90.5296 21.596 91.3696 22.968 93.1896 22.968ZM109.849 27.476C105.117 27.476 102.233 24.396 102.233 19.86C102.233 15.352 105.117 12.188 109.933 12.188C114.665 12.188 117.549 15.268 117.549 19.776C117.549 24.312 114.665 27.476 109.849 27.476ZM109.905 24.116C111.893 24.116 113.013 22.604 113.013 19.832C113.013 17.06 111.893 15.548 109.905 15.548C107.889 15.548 106.769 17.06 106.769 19.832C106.769 22.604 107.889 24.116 109.905 24.116ZM138.578 16.976C138.578 20 137.682 22.604 136.002 24.452L138.102 26.58L135.666 29.1L133.146 26.552C131.858 27.14 130.346 27.448 128.666 27.448C122.31 27.448 118.754 23.024 118.754 16.976C118.754 10.956 122.31 6.532 128.666 6.532C134.966 6.532 138.578 10.956 138.578 16.976ZM128.666 23.332C129.086 23.332 129.478 23.304 129.842 23.22L127.462 20.812L129.898 18.292L132.642 21.064C133.202 19.944 133.426 18.516 133.426 16.976C133.426 13.504 132.306 10.648 128.666 10.648C124.998 10.648 123.906 13.504 123.906 16.976C123.906 20.476 124.998 23.332 128.666 23.332ZM149.716 20.952V12.664H154.196V27H149.716V24.928H149.66C148.904 26.244 147.504 27.448 144.956 27.448C142.184 27.448 140.308 25.628 140.308 22.352V12.664H144.788V20.924C144.788 23.08 145.544 23.808 147.028 23.808C148.736 23.808 149.716 22.94 149.716 20.952ZM170.83 20.364V21.036H160.526C160.526 23.024 161.926 24.116 163.606 24.116C165.202 24.116 165.874 23.388 166.154 22.66H170.718C169.906 25.572 167.526 27.476 163.494 27.476C158.846 27.476 156.046 24.312 156.046 19.832C156.046 15.632 158.678 12.188 163.494 12.188C168.366 12.188 170.83 15.072 170.83 20.364ZM160.554 18.264H166.322C166.322 16.416 165.23 15.436 163.494 15.436C161.786 15.436 160.666 16.416 160.554 18.264ZM179.068 27.448C174.056 27.448 172.096 25.04 171.984 22.24H176.184C176.324 23.668 177.276 24.368 178.984 24.368C180.3 24.368 180.888 23.948 180.888 23.136C180.888 21.848 179.46 21.708 177.388 21.232C174.868 20.644 172.264 19.636 172.264 16.724C172.264 14.036 174.504 12.216 178.536 12.216C183.128 12.216 184.92 14.54 185.06 17.06H180.86C180.72 15.912 180.104 15.296 178.62 15.296C177.388 15.296 176.856 15.744 176.856 16.444C176.856 17.396 177.696 17.452 179.852 17.956C182.68 18.628 185.48 19.468 185.48 22.8C185.48 25.796 183.212 27.448 179.068 27.448ZM194.125 23.92C194.545 23.92 194.797 23.892 195.329 23.808V26.972C194.377 27.196 193.565 27.28 192.669 27.28C189.533 27.28 188.189 25.852 188.189 22.352V16.024H186.201V12.664H188.189V8.66H192.669V12.664H195.161V16.024H192.669V22.24C192.669 23.78 193.257 23.92 194.125 23.92Z" fill="#8F2D56"/>
</svg>
