<svg width="50" height="50" viewBox="0 0 50 50" fill="none" xmlns="http://www.w3.org/2000/svg">
<path d="M29.27 35.625L33.333 43.75L37.458 39.52L43.75 39.583L37.896 27.958V27.938M20.73 35.625L16.667 43.75L12.542 39.52L6.25 39.583L12.104 27.958V27.938" stroke="#344054" stroke-linecap="round" stroke-linejoin="round"/>
<path d="M40.167 20.833C40.167 22.417 38.771 23.75 38.312 25.167C37.854 26.583 38.167 28.521 37.271 29.75C36.375 30.979 34.458 31.25 33.333 32.167C32.208 33.084 31.25 34.792 29.792 35.271C28.333 35.75 26.687 34.833 25.104 34.833C23.521 34.833 21.834 35.729 20.417 35.271C19 34.812 18.104 33.041 16.875 32.167C15.645 31.292 13.729 30.979 12.833 29.75C11.937 28.52 12.271 26.625 11.792 25.167C11.312 23.708 9.83301 22.417 9.83301 20.833C9.83301 19.249 11.229 17.917 11.687 16.5C12.145 15.083 11.833 13.146 12.729 11.917C13.625 10.688 15.542 10.417 16.771 9.50001C18 8.58301 18.75 6.87501 20.312 6.39601C21.875 5.91601 23.417 6.83301 25 6.83301C26.583 6.83301 28.27 5.93701 29.688 6.39601C31.104 6.85401 32 8.62501 33.333 9.50001C34.666 10.375 36.479 10.687 37.375 11.917C38.271 13.147 37.938 15.042 38.417 16.5C38.896 17.958 40.167 19.25 40.167 20.833ZM25 14.583C23.3423 14.583 21.7524 15.2415 20.5802 16.4137C19.408 17.5859 18.7495 19.1758 18.7495 20.8335C18.7495 22.4912 19.408 24.0811 20.5802 25.2533C21.7524 26.4255 23.3423 27.084 25 27.084C26.6576 27.084 28.2473 26.4255 29.4194 25.2534C30.5915 24.0813 31.25 22.4916 31.25 20.834C31.25 19.1764 30.5915 17.5867 29.4194 16.4146C28.2473 15.2425 26.6576 14.583 25 14.583Z" stroke="#306CFE" stroke-linecap="round" stroke-linejoin="round"/>
</svg>
