<svg width="50" height="50" viewBox="0 0 50 50" fill="none" xmlns="http://www.w3.org/2000/svg">
<path d="M18.9729 11.35C20.2187 7.70416 25.2562 7.59374 26.7333 11.0187L26.8583 11.3521L28.5396 16.2687C28.9249 17.3963 29.5475 18.4281 30.3655 19.2946C31.1834 20.1611 32.1777 20.8421 33.2812 21.2917L33.7333 21.4604L38.65 23.1396C42.2958 24.3854 42.4062 29.4229 38.9833 30.9L38.65 31.025L33.7333 32.7062C32.6054 33.0913 31.5731 33.7138 30.7063 34.5318C29.8394 35.3498 29.1581 36.3442 28.7083 37.4479L28.5396 37.8979L26.8604 42.8167C25.6146 46.4625 20.5771 46.5729 19.1021 43.15L18.9729 42.8167L17.2937 37.9C16.9087 36.772 16.2862 35.7398 15.4682 34.8729C14.6502 34.0061 13.6558 33.3248 12.5521 32.875L12.1021 32.7062L7.18539 31.0271C3.53747 29.7812 3.42706 24.7437 6.85206 23.2687L7.18539 23.1396L12.1021 21.4604C13.2296 21.0751 14.2615 20.4525 15.1279 19.6345C15.9944 18.8165 16.6754 17.8223 17.125 16.7187L17.2937 16.2687L18.9729 11.35ZM22.9166 12.6958L21.2375 17.6125C20.6508 19.3319 19.6964 20.9027 18.4407 22.2156C17.185 23.5285 15.6582 24.5519 13.9666 25.2146L13.4458 25.4042L8.52914 27.0833L13.4458 28.7625C15.1652 29.3492 16.736 30.3036 18.0489 31.5593C19.3618 32.815 20.3852 34.3418 21.0479 36.0333L21.2375 36.5542L22.9166 41.4708L24.5958 36.5542C25.1825 34.8348 26.1369 33.2639 27.3926 31.951C28.6483 30.6381 30.1751 29.6147 31.8666 28.9521L32.3875 28.7646L37.3041 27.0833L32.3875 25.4042C30.6681 24.8175 29.0973 23.863 27.7844 22.6074C26.4715 21.3517 25.448 19.8249 24.7854 18.1333L24.5979 17.6125L22.9166 12.6958ZM39.5833 4.16666C39.9731 4.16666 40.355 4.27599 40.6857 4.48222C41.0164 4.68846 41.2826 4.98333 41.4541 5.33332L41.5541 5.57707L42.2833 7.71457L44.4229 8.44374C44.8135 8.57644 45.1559 8.82211 45.4067 9.14961C45.6575 9.4771 45.8055 9.87169 45.8318 10.2834C45.8581 10.695 45.7617 11.1053 45.5546 11.462C45.3475 11.8188 45.0392 12.1061 44.6687 12.2875L44.4229 12.3875L42.2854 13.1167L41.5562 15.2562C41.4233 15.6467 41.1774 15.9889 40.8498 16.2396C40.5222 16.4902 40.1275 16.6379 39.7159 16.664C39.3042 16.6901 38.8941 16.5934 38.5374 16.3862C38.1808 16.179 37.8937 15.8705 37.7125 15.5L37.6125 15.2562L36.8833 13.1187L34.7437 12.3896C34.3531 12.2569 34.0107 12.0112 33.7599 11.6837C33.5091 11.3562 33.3611 10.9616 33.3348 10.5499C33.3085 10.1383 33.405 9.72805 33.612 9.37127C33.8191 9.01448 34.1274 8.7272 34.4979 8.54582L34.7437 8.44582L36.8812 7.71666L37.6104 5.57707C37.7509 5.16546 38.0167 4.80813 38.3705 4.5552C38.7243 4.30226 39.1484 4.1664 39.5833 4.16666Z" fill="#FFA629"/>
</svg>
