<svg width="60" height="60" viewBox="0 0 60 60" fill="none" xmlns="http://www.w3.org/2000/svg">
<path d="M6.66667 8.33331C4.89856 8.33331 3.20286 9.03569 1.95262 10.2859C0.702379 11.5362 0 13.2319 0 15L0 45C0 46.7681 0.702379 48.4638 1.95262 49.714C3.20286 50.9643 4.89856 51.6666 6.66667 51.6666H20V8.33331H6.66667Z" fill="#009A49"/>
<path d="M20 8.33331H40V51.6666H20V8.33331Z" fill="#EEEEEE"/>
<path d="M53.3333 8.33331H40V51.6666H53.3333C55.1014 51.6666 56.7971 50.9643 58.0474 49.714C59.2976 48.4638 60 46.7681 60 45V15C60 13.2319 59.2976 11.5362 58.0474 10.2859C56.7971 9.03569 55.1014 8.33331 53.3333 8.33331Z" fill="#009A49"/>
</svg>
