<svg width="50" height="50" viewBox="0 0 50 50" fill="none" xmlns="http://www.w3.org/2000/svg">
<path d="M42.1875 8.59375H7.81253C6.77653 8.59375 5.78296 9.0053 5.0504 9.73786C4.31783 10.4704 3.90628 11.464 3.90628 12.5V43.75C3.90316 44.4939 4.11445 45.2229 4.51487 45.8499C4.91529 46.4768 5.48787 46.9751 6.1641 47.2852C6.68311 47.5284 7.2491 47.6551 7.8223 47.6562C8.73957 47.654 9.6265 47.3275 10.3262 46.7344L10.3496 46.7129L16.4981 41.4062H42.1875C43.2235 41.4062 44.2171 40.9947 44.9497 40.2621C45.6822 39.5296 46.0938 38.536 46.0938 37.5V12.5C46.0938 11.464 45.6822 10.4704 44.9497 9.73786C44.2171 9.0053 43.2235 8.59375 42.1875 8.59375ZM41.4063 36.7188H15.625C15.0625 36.7178 14.5186 36.9204 14.0938 37.2891L8.59378 42.0371V13.2812H41.4063V36.7188Z" fill="#FFA629"/>
</svg>
