<svg width="70" height="70" viewBox="0 0 70 70" fill="none" xmlns="http://www.w3.org/2000/svg">
<path d="M48.1249 31.7187H41.5624C40.6922 31.7187 39.8576 31.373 39.2422 30.7577C38.6269 30.1423 38.2812 29.3077 38.2812 28.4375C38.2812 27.5673 38.6269 26.7327 39.2422 26.1173C39.8576 25.502 40.6922 25.1562 41.5624 25.1562H48.1249C48.9952 25.1562 49.8298 25.502 50.4451 26.1173C51.0605 26.7327 51.4062 27.5673 51.4062 28.4375C51.4062 29.3077 51.0605 30.1423 50.4451 30.7577C49.8298 31.373 48.9952 31.7187 48.1249 31.7187ZM28.4374 25.1562H27.3437V24.0625C27.3437 23.1923 26.998 22.3577 26.3826 21.7423C25.7673 21.127 24.9327 20.7812 24.0624 20.7812C23.1922 20.7812 22.3576 21.127 21.7422 21.7423C21.1269 22.3577 20.7812 23.1923 20.7812 24.0625V25.1562H19.6874C18.8172 25.1562 17.9826 25.502 17.3672 26.1173C16.7519 26.7327 16.4062 27.5673 16.4062 28.4375C16.4062 29.3077 16.7519 30.1423 17.3672 30.7577C17.9826 31.373 18.8172 31.7187 19.6874 31.7187H20.7812V32.8125C20.7812 33.6827 21.1269 34.5173 21.7422 35.1327C22.3576 35.748 23.1922 36.0937 24.0624 36.0937C24.9327 36.0937 25.7673 35.748 26.3826 35.1327C26.998 34.5173 27.3437 33.6827 27.3437 32.8125V31.7187H28.4374C29.3077 31.7187 30.1423 31.373 30.7576 30.7577C31.373 30.1423 31.7187 29.3077 31.7187 28.4375C31.7187 27.5673 31.373 26.7327 30.7576 26.1173C30.1423 25.502 29.3077 25.1562 28.4374 25.1562ZM66.9265 55.4914C66.0104 56.7976 64.8197 57.8875 63.4379 58.6848C62.0561 59.4822 60.5165 59.9675 58.9273 60.1069C57.338 60.2463 55.7375 60.0363 54.238 59.4917C52.7384 58.9471 51.3762 58.0811 50.2468 56.9543C50.1957 56.9059 50.1473 56.8548 50.1019 56.8012L39.5581 44.8437H30.4417L19.9089 56.8012C19.8624 56.8531 19.8132 56.9051 19.764 56.9543C18.1187 58.5975 15.9925 59.6735 13.6942 60.0263C11.3958 60.3791 9.0448 59.9901 6.98247 58.916C4.92014 57.8418 3.25381 56.1384 2.22536 54.0529C1.19692 51.9674 0.859887 49.6084 1.26319 47.3184C1.26164 47.3002 1.26164 47.2819 1.26319 47.2637L5.7421 24.2785C6.45481 20.2356 8.56877 16.5728 11.7129 13.9332C14.8571 11.2935 18.8305 9.84568 22.9358 9.84375H47.0312C51.1237 9.84958 55.0852 11.2878 58.2283 13.909C61.3713 16.5301 63.4977 20.1688 64.2386 24.1937C64.2395 24.2111 64.2395 24.2284 64.2386 24.2457L68.712 47.2609C68.7131 47.2791 68.7131 47.2974 68.712 47.3156C68.9695 48.7288 68.9443 50.179 68.6379 51.5823C68.3314 52.9856 67.7497 54.3143 66.9265 55.4914ZM47.0312 38.2812C49.932 38.2812 52.714 37.1289 54.7651 35.0777C56.8163 33.0265 57.9687 30.2446 57.9687 27.3437C57.9687 24.4429 56.8163 21.6609 54.7651 19.6098C52.714 17.5586 49.932 16.4062 47.0312 16.4062H22.9386C20.3712 16.4088 17.887 17.3166 15.9229 18.9701C13.9588 20.6236 12.6408 22.9167 12.2007 25.4461C12.1994 25.4652 12.1994 25.4844 12.2007 25.5035L7.73272 48.4723C7.53894 49.6118 7.80403 50.7818 8.47007 51.7265C9.13611 52.6713 10.149 53.3141 11.2874 53.5145C11.9651 53.6326 12.6611 53.59 13.3194 53.3901C13.9776 53.1901 14.5798 52.8384 15.0773 52.3633L26.496 39.3941C26.8037 39.0446 27.1824 38.7646 27.6067 38.5727C28.031 38.3809 28.4913 38.2815 28.9569 38.2812H47.0312ZM62.278 48.4832L60.364 38.6531C58.8586 40.4333 57.0119 41.8938 54.9328 42.9486C52.8538 44.0034 50.5845 44.6311 48.2589 44.7945L54.9335 52.3742C55.5977 53.0114 56.446 53.4229 57.3576 53.5502C58.2692 53.6774 59.1977 53.5139 60.011 53.0828C60.8243 52.6518 61.481 51.9752 61.8875 51.1494C62.294 50.3236 62.4297 49.3906 62.2753 48.4832H62.278Z" fill="#FFBC42"/>
</svg>
