<svg width="70" height="70" viewBox="0 0 70 70" fill="none" xmlns="http://www.w3.org/2000/svg">
<path d="M62.2864 14.3883L36.0364 5.63827C35.3641 5.41135 34.636 5.41135 33.9637 5.63827L7.71372 14.3883C7.08737 14.5957 6.53811 14.9872 6.13763 15.5116C5.73715 16.0359 5.50407 16.6689 5.4688 17.3277C5.4658 17.3851 5.4658 17.4426 5.4688 17.5V39.375C5.4688 40.2452 5.8145 41.0798 6.42985 41.6952C7.04521 42.3105 7.87981 42.6562 8.75005 42.6562C9.62029 42.6562 10.4549 42.3105 11.0702 41.6952C11.6856 41.0798 12.0313 40.2452 12.0313 39.375V22.0527L18.5145 24.2129C16.5024 28.0642 15.9045 32.4992 16.8248 36.7459C17.7451 40.9926 20.1253 44.7822 23.5512 47.4551C19.068 49.6659 15.2738 53.0592 12.5782 57.2687C12.3354 57.6295 12.1668 58.035 12.0821 58.4615C11.9975 58.888 11.9984 59.3271 12.0849 59.7533C12.1714 60.1794 12.3418 60.5841 12.5861 60.9439C12.8304 61.3036 13.1438 61.6112 13.508 61.8488C13.8722 62.0863 14.28 62.2491 14.7077 62.3277C15.1354 62.4063 15.5745 62.399 15.9993 62.3064C16.4242 62.2138 16.8265 62.0377 17.1827 61.7883C17.5389 61.5388 17.8419 61.2211 18.0743 60.8535C21.9762 54.8488 28.1641 51.4062 35 51.4062C41.836 51.4062 48.0239 54.8488 51.9395 60.8535C52.1718 61.2211 52.4749 61.5388 52.8311 61.7883C53.1873 62.0377 53.5895 62.2138 54.0144 62.3064C54.4393 62.399 54.8783 62.4063 55.306 62.3277C55.7337 62.2491 56.1415 62.0863 56.5058 61.8488C56.87 61.6112 57.1834 61.3036 57.4277 60.9439C57.672 60.5841 57.8423 60.1794 57.9288 59.7533C58.0154 59.3271 58.0163 58.888 57.9316 58.4615C57.847 58.035 57.6783 57.6295 57.4356 57.2687C54.7374 53.0543 50.9381 49.6579 46.4489 47.4469C49.8748 44.774 52.255 40.9844 53.1753 36.7377C54.0956 32.491 53.4977 28.056 51.4856 24.2047L62.2864 20.6035C62.9389 20.3852 63.5063 19.9673 63.9083 19.4089C64.3103 18.8505 64.5266 18.1798 64.5266 17.4918C64.5266 16.8037 64.3103 16.1331 63.9083 15.5747C63.5063 15.0163 62.9389 14.5984 62.2864 14.3801V14.3883ZM35 12.2008L50.8731 17.5L35 22.791L19.1407 17.5L35 12.2008ZM47.0313 32.8125C47.0317 34.6813 46.5967 36.5244 45.7608 38.1958C44.925 39.8673 43.7113 41.321 42.216 42.4418C40.7207 43.5627 38.9848 44.3198 37.146 44.6531C35.3072 44.9864 33.416 44.8868 31.6224 44.3622C29.8288 43.8375 28.1821 42.9023 26.8128 41.6306C25.4434 40.3589 24.3892 38.7857 23.7335 37.0357C23.0779 35.2858 22.8389 33.4071 23.0356 31.5487C23.2322 29.6903 23.8591 27.9033 24.8665 26.3293L33.9637 29.3617C34.6361 29.5878 35.364 29.5878 36.0364 29.3617L45.1336 26.3293C46.3745 28.2638 47.0332 30.5142 47.0313 32.8125Z" fill="#FFBC42"/>
</svg>
