<svg width="70" height="70" viewBox="0 0 70 70" fill="none" xmlns="http://www.w3.org/2000/svg">
<path d="M59.0625 13.125H49.2188V10.9375C49.2188 8.90694 48.4121 6.95954 46.9763 5.52371C45.5405 4.08789 43.5931 3.28125 41.5625 3.28125H28.4375C26.4069 3.28125 24.4595 4.08789 23.0237 5.52371C21.5879 6.95954 20.7812 8.90694 20.7812 10.9375V13.125H10.9375C9.4871 13.125 8.0961 13.7012 7.07051 14.7268C6.04492 15.7523 5.46875 17.1433 5.46875 18.5938V53.5938C5.46875 55.0442 6.04492 56.4352 7.07051 57.4607C8.0961 58.4863 9.4871 59.0625 10.9375 59.0625H59.0625C60.5129 59.0625 61.9039 58.4863 62.9295 57.4607C63.9551 56.4352 64.5312 55.0442 64.5312 53.5938V18.5938C64.5312 17.1433 63.9551 15.7523 62.9295 14.7268C61.9039 13.7012 60.5129 13.125 59.0625 13.125ZM27.3438 10.9375C27.3438 10.6474 27.459 10.3692 27.6641 10.1641C27.8692 9.95898 28.1474 9.84375 28.4375 9.84375H41.5625C41.8526 9.84375 42.1308 9.95898 42.3359 10.1641C42.541 10.3692 42.6562 10.6474 42.6562 10.9375V13.125H27.3438V10.9375ZM42.6562 19.6875V52.5H27.3438V19.6875H42.6562ZM12.0312 19.6875H20.7812V52.5H12.0312V19.6875ZM57.9688 52.5H49.2188V19.6875H57.9688V52.5Z" fill="#FFBC42"/>
</svg>
