<svg width="57" height="57" viewBox="0 0 57 57" fill="none" xmlns="http://www.w3.org/2000/svg">
<path d="M46.4889 23.8212L53.9291 16.8185L54.0002 16.7474C55.8214 14.8963 56.8374 12.4005 56.8268 9.80367C56.8162 7.20685 55.78 4.71941 53.9437 2.88317C52.1075 1.04693 49.62 0.0106557 47.0232 8.17182e-05C44.4264 -0.0104923 41.9306 1.00549 40.0795 2.82671C40.0549 2.84859 40.033 2.8732 40.0084 2.89781L33.0057 10.338L10.9693 2.32906C10.3828 2.11593 9.74759 2.0745 9.13832 2.20963C8.52904 2.34475 7.97094 2.65083 7.52948 3.09195L0.966979 9.65445C0.622076 9.9976 0.357798 10.4132 0.193282 10.871C0.0287667 11.3289 -0.0318692 11.8176 0.0157646 12.3018C0.0633985 12.786 0.21811 13.2535 0.468697 13.6706C0.719284 14.0876 1.05947 14.4437 1.46464 14.713L17.8244 25.6177L15.0435 28.3849H9.84823C8.97867 28.385 8.14469 28.7302 7.52948 29.3447L0.966979 35.9072C0.583257 36.2906 0.300583 36.7632 0.144256 37.2826C-0.0120723 37.8021 -0.0371772 38.3522 0.0711872 38.8837C0.179552 39.4153 0.418004 39.9116 0.765207 40.3284C1.11241 40.7452 1.55753 41.0694 2.06073 41.272L11.6939 45.1275L15.5385 54.7361L15.5631 54.7962C15.772 55.3005 16.1034 55.7447 16.5272 56.0886C16.9511 56.4325 17.4541 56.6652 17.9906 56.7656C18.5271 56.8661 19.0802 56.8311 19.5998 56.6639C20.1193 56.4967 20.589 56.2025 20.9662 55.808L27.4767 49.2974C27.782 48.9932 28.0244 48.6319 28.19 48.2341C28.3556 47.8362 28.4412 47.4096 28.442 46.9787V41.7834L31.2119 39.0134L42.1139 55.3595C42.3831 55.7635 42.7387 56.1027 43.1549 56.3526C43.5711 56.6025 44.0375 56.757 44.5206 56.8049C45.0037 56.8527 45.4915 56.7928 45.9486 56.6294C46.4058 56.466 46.8209 56.2032 47.1642 55.8599L53.7267 49.2974C54.1684 48.8557 54.4748 48.2971 54.6099 47.6873C54.7451 47.0775 54.7033 46.4418 54.4896 45.8548L46.4889 23.8212ZM45.365 48.3896L34.4576 32.0298C34.1882 31.6262 33.8327 31.2874 33.4166 31.0378C33.0005 30.7881 32.5342 30.6338 32.0514 30.5861C31.9423 30.5759 31.8328 30.5713 31.7232 30.5724C31.292 30.5724 30.865 30.6575 30.4667 30.8226C30.0683 30.9878 29.7065 31.2298 29.4017 31.5349L22.8392 38.0974C22.2247 38.7126 21.8795 39.5466 21.8795 40.4162V45.6115L19.7959 47.6951L17.2693 41.3787C17.1043 40.9657 16.857 40.5906 16.5426 40.2761C16.2281 39.9617 15.853 39.7144 15.44 39.5494L9.12362 37.0228L11.2154 34.9474H16.4107C17.2803 34.9474 18.1143 34.6022 18.7295 33.9877L25.292 27.4252C25.6364 27.082 25.9002 26.6666 26.0645 26.209C26.2287 25.7515 26.2892 25.2631 26.2415 24.7793C26.1939 24.2954 26.0394 23.8282 25.7891 23.4114C25.5388 22.9947 25.199 22.6387 24.7943 22.3693L8.43729 11.4646L10.6904 9.20875L32.7924 17.2451C33.3951 17.4644 34.0488 17.5023 34.6728 17.3541C35.2968 17.2058 35.8636 16.878 36.3033 16.4111L44.7498 7.43687C45.3662 6.82045 46.2023 6.47415 47.074 6.47415C47.9458 6.47415 48.7818 6.82045 49.3982 7.43687C50.0147 8.05329 50.361 8.88934 50.361 9.76109C50.361 10.6328 50.0147 11.4689 49.3982 12.0853L40.424 20.5318C39.9566 20.9712 39.6283 21.5379 39.4796 22.1619C39.3308 22.7859 39.3683 23.4398 39.5873 24.0427L47.6264 46.1419L45.365 48.3896Z" fill="#FFBC42"/>
</svg>
